# xmcd CD database file
#
# Track frame offsets:
#	183
#	15713
#	34458
#	49155
#	64318
#	82893
#	99025
#	110563
#	123145
#	132865
#	145303
#
# Disc length: 2144 seconds
#
# Revision: 1
# Processed by: cddbd v1.5.2PL0 Copyright (c) Steve Scherf et al.
# Submitted via: CDex 1.51
#
DISCID=90085e0b
DTITLE=The Happening Thang - The Happening Thang
DYEAR=1989
DGENRE=Country
TTITLE0=I Don't Wanna Go To Work
TTITLE1=Drive Away
TTITLE2=Bootless And Unhorsed
TTITLE3=Let's Pretend
TTITLE4=Let It Rain
TTITLE5=Gonna Live Till I'm A Hundred
TTITLE6=Ramblin' Cowgirl
TTITLE7=Wages Of Love
TTITLE8=Like All Get Out
TTITLE9=Empty House
TTITLE10=Saddle Up And Say Goodbye
EXTD=YEAR: 1989
EXTT0=
EXTT1=
EXTT2=
EXTT3=
EXTT4=
EXTT5=
EXTT6=
EXTT7=
EXTT8=
EXTT9=
EXTT10=
PLAYORDER=
